<?xml version="1.0" standalone="no"?>
<!DOCTYPE svg PUBLIC "-//W3C//DTD SVG 20010904//EN"
 "http://www.w3.org/TR/2001/REC-SVG-20010904/DTD/svg10.dtd">
<svg version="1.0" xmlns="http://www.w3.org/2000/svg"
 width="225.000000pt" height="225.000000pt" viewBox="0 0 225.000000 225.000000"
 preserveAspectRatio="xMidYMid meet">
<metadata>
Created by potrace 1.15, written by Peter Selinger 2001-2017
</metadata>
<g transform="translate(0.000000,225.000000) scale(0.100000,-0.100000)"
fill="#000000" stroke="none">
<path d="M970 2239 c-146 -18 -310 -68 -443 -135 -150 -76 -370 -263 -412
-349 -41 -86 -10 -216 59 -249 26 -12 49 -44 109 -146 l77 -131 0 -234 c0
-141 4 -245 11 -262 16 -44 49 -73 91 -79 l38 -7 0 -93 c0 -89 1 -94 29 -122
44 -44 105 -50 156 -16 17 12 23 10 55 -20 19 -19 70 -58 113 -88 72 -50 81
-60 141 -163 75 -129 100 -153 148 -139 29 9 45 31 152 213 l119 202 17 -40
c30 -66 109 -91 171 -54 42 25 59 69 59 156 l0 75 42 14 c28 9 50 24 65 47 20
30 23 46 23 143 l0 110 49 56 c27 31 56 71 65 89 22 44 20 104 -5 156 l-21 43
83 143 c53 91 91 146 105 151 36 14 64 51 80 108 13 44 14 62 4 105 -11 47
-23 62 -119 157 -122 121 -233 200 -259 183 -35 -21 -23 -40 60 -98 121 -85
244 -210 253 -259 8 -40 -7 -110 -26 -122 -6 -3 -49 33 -96 81 -95 97 -218
192 -304 236 l-57 28 -37 -29 c-48 -38 -92 -39 -134 -4 -23 19 -31 34 -31 60
0 24 -6 38 -22 48 -43 28 -293 48 -326 27 -8 -4 -12 -19 -10 -32 3 -23 6 -24
123 -30 143 -7 161 -12 170 -46 11 -44 45 -84 89 -104 55 -25 93 -24 149 5
l47 23 56 -33 c82 -50 175 -126 248 -205 76 -82 80 -52 -32 -239 -46 -77 -73
-114 -83 -110 -40 12 -126 3 -160 -17 l-35 -22 -49 24 c-27 14 -59 25 -73 25
-80 0 -161 -62 -182 -139 -19 -71 5 -127 93 -218 68 -71 176 -146 210 -146 13
1 42 12 65 27 l42 26 0 -84 c0 -98 -9 -112 -67 -103 -58 10 -63 -1 -63 -124 0
-100 -2 -109 -22 -123 -30 -21 -44 -20 -68 4 -16 16 -20 33 -20 81 0 51 6 71
36 126 34 60 35 66 20 81 -13 13 -20 14 -34 6 -9 -6 -96 -146 -192 -310 -97
-164 -181 -299 -188 -299 -9 0 -132 193 -132 208 0 2 24 20 53 40 60 42 134
115 171 171 20 30 26 51 26 93 0 82 -36 136 -112 168 -52 21 -86 19 -146 -11
l-52 -26 -26 21 c-76 59 -212 22 -261 -72 -20 -39 -20 -115 0 -154 18 -34 8
-53 -28 -53 -44 0 -55 28 -55 141 0 63 -4 109 -11 116 -6 6 -28 9 -50 6 -67
-9 -69 -4 -69 200 l0 181 81 -139 c45 -77 88 -148 97 -157 20 -23 39 -23 51 1
9 15 -25 79 -190 362 -111 189 -203 347 -206 352 -2 4 43 55 101 114 l105 106
39 -49 c60 -77 213 -194 252 -194 28 0 140 79 206 146 85 86 110 139 99 211
-6 40 -15 56 -54 94 -69 66 -139 75 -218 27 l-33 -20 -37 24 c-55 33 -136 32
-190 -4 -45 -30 -83 -96 -83 -145 0 -22 -7 -36 -27 -49 -16 -10 -72 -62 -125
-116 -54 -55 -102 -97 -108 -93 -17 11 -33 82 -26 120 15 77 219 258 392 347
202 105 376 143 614 135 166 -5 289 -30 420 -83 48 -19 65 -22 76 -13 22 18
16 45 -13 59 -59 27 -200 71 -277 85 -101 20 -307 27 -406 14z"/>
<path d="M1114 1636 c-58 -25 -102 -108 -90 -168 15 -74 90 -138 162 -138 45
1 108 34 135 71 32 46 34 134 3 176 -51 68 -134 92 -210 59z m149 -87 c9 -12
17 -38 17 -59 0 -30 -6 -44 -31 -64 -80 -68 -195 16 -148 107 31 58 120 67
162 16z"/>
<path d="M1520 1633 c-54 -37 -71 -88 -47 -146 18 -43 60 -67 118 -67 33 0 47
6 75 34 28 28 34 41 34 78 0 24 -7 54 -16 66 -34 50 -117 67 -164 35z"/>
<path d="M704 1386 c-67 -29 -92 -102 -59 -166 43 -84 169 -75 212 15 15 32
16 40 3 77 -24 68 -94 101 -156 74z"/>
<path d="M949 1123 c-60 -37 -75 -106 -36 -164 60 -90 200 -58 214 48 13 98
-94 168 -178 116z"/>
</g>
</svg>
